<svg width="89" height="30" viewBox="0 0 89 30" fill="none" xmlns="http://www.w3.org/2000/svg">
<path d="M16.1974 0.325145C17.0487 0.153944 17.9584 0.227052 18.7422 0.612946C19.7546 1.09323 20.4755 2.08805 20.7032 3.1754C20.9345 4.16466 20.8596 5.22518 20.494 6.17372C19.9925 7.41006 18.7922 8.37341 17.4402 8.45022C16.2899 8.58718 15.0767 8.14946 14.3058 7.27866C13.0352 5.77672 12.9418 3.43821 14.0069 1.80117C14.5205 1.05437 15.3071 0.511152 16.1974 0.325145Z" fill="#0A1FDA"/>
<path d="M21.8923 0.920145C24.316 0.918294 26.7396 0.924772 29.1633 0.916443C29.1466 5.02618 29.166 9.13591 29.1531 13.2447C29.3678 12.3721 29.7278 11.5401 30.1581 10.7526C30.6023 9.98544 31.214 9.29693 31.983 8.84533C33.2859 8.12352 35.0118 8.13555 36.2334 9.02579C37.0079 9.56252 37.5095 10.3861 37.9315 11.2088C38.5201 12.5044 38.8393 13.9064 39.0244 15.313C39.2872 17.5192 39.2863 19.7568 39.0401 21.9648C38.8236 23.7166 38.4312 25.4777 37.5983 27.0472C37.1477 27.9078 36.4999 28.6814 35.667 29.1932C34.6852 29.7632 33.4683 29.8465 32.3855 29.5448C31.2639 29.233 30.3533 28.414 29.7527 27.4358C29.5223 27.0768 29.3604 26.6807 29.1522 26.3105C29.1623 27.2471 29.1549 28.1845 29.1568 29.1219C26.735 29.1219 24.3141 29.1219 21.8923 29.1219C21.8923 19.7216 21.8923 10.3204 21.8923 0.920145ZM29.5473 14.1914C29.3585 14.5468 29.129 14.916 29.1549 15.3361C29.1614 18.1808 29.1522 21.0246 29.1596 23.8684C29.2577 24.5116 29.5288 25.2898 30.2108 25.5101C30.7799 25.4842 31.027 24.9141 31.2047 24.4579C31.7294 22.4821 31.6748 20.4148 31.6785 18.3881C31.6406 17.1823 31.5795 15.9608 31.2482 14.7948C31.0946 14.3469 30.9021 13.7981 30.3968 13.6519C30.022 13.5899 29.7287 13.9027 29.5473 14.1914Z" fill="#0A1FDA"/>
<path d="M10.7357 8.70433C11.2344 8.4665 11.7888 8.38136 12.3366 8.3573C12.3847 11.3778 12.3764 14.3993 12.4328 17.4198C11.5019 17.0126 10.619 16.3611 9.56408 16.3537C8.91445 16.3611 8.39437 16.8516 8.12508 17.4078C7.73085 18.2064 7.58741 19.0929 7.46063 19.9656C7.33941 20.9438 7.25519 21.9284 7.27093 22.9149C7.27093 24.9841 7.27093 27.0524 7.27093 29.1216C4.84913 29.1216 2.42734 29.1216 0.00647782 29.1216C0.00185079 22.4031 0.0148065 15.6856 0 8.96714C2.42364 8.97547 4.84728 8.96899 7.27093 8.97085C7.28388 11.3168 7.24501 13.6636 7.29128 16.0095C7.59204 14.118 7.99737 12.1977 8.92555 10.5024C9.36235 9.76577 9.95183 9.08189 10.7357 8.70433Z" fill="#0A1FDA"/>
<path d="M46.9561 8.46876C49.2715 8.106 51.8238 8.40768 53.7385 9.85132C54.5417 10.4723 55.195 11.2774 55.667 12.1759C56.4749 13.8408 56.7395 15.7166 56.7109 17.5526C56.7007 19.3414 56.7349 21.132 56.6868 22.9208C56.6887 24.9873 56.6868 27.0546 56.6877 29.122C54.6842 29.122 52.6816 29.122 50.6781 29.122C50.4986 28.067 50.3589 27.0056 50.1821 25.9497C49.9822 27.1731 49.3039 28.3493 48.2221 28.9906C47.2042 29.6634 45.9326 29.8605 44.7352 29.7189C43.6191 29.5921 42.4883 29.2081 41.6489 28.4381C41.015 27.9023 40.5958 27.1601 40.3339 26.3828C39.9295 25.0261 39.9277 23.5427 40.3617 22.1935C40.9197 20.4935 42.4883 19.2951 44.1901 18.8851C46.0391 18.3965 47.9852 18.5076 49.8554 18.8074C49.8619 17.6044 49.9026 16.3967 49.7601 15.1992C49.687 14.6644 49.5862 14.0749 49.1521 13.7047C48.9078 13.6538 48.6339 13.589 48.4081 13.7353C47.987 14.0055 47.888 14.5367 47.7714 14.9855C47.6178 15.7934 47.5715 16.6207 47.578 17.4424C45.1303 17.4313 42.6835 17.4461 40.2368 17.435C40.2469 15.8748 40.5199 14.3025 41.1566 12.8709C41.7748 11.4911 42.7946 10.2816 44.0911 9.49411C44.9573 8.95182 45.9521 8.63348 46.9561 8.46876ZM47.6178 23.6602C47.6086 24.221 47.6428 24.8124 47.901 25.3214C48.149 25.7924 48.8384 25.9321 49.2326 25.5629C49.6722 25.1585 49.7916 24.5227 49.8573 23.9545C49.8693 22.6182 49.8601 21.281 49.8619 19.9447C48.4766 20.6092 47.616 22.1435 47.6178 23.6602Z" fill="#0A1FDA"/>
<path d="M68.3645 8.85808C68.9271 8.49069 69.6101 8.39167 70.268 8.35651C70.2717 11.378 70.3171 14.3976 70.3402 17.419C69.562 17.0433 68.8096 16.576 67.9536 16.4011C67.5807 16.3178 67.1818 16.3511 66.8348 16.5084C66.4618 16.7527 66.1518 17.1044 65.9816 17.5199C65.7345 18.1196 65.5568 18.7488 65.4652 19.392C65.0608 21.6888 65.2033 24.0274 65.1783 26.3473C65.1783 27.2718 65.1783 28.1963 65.1783 29.1217C62.7565 29.1217 60.3356 29.1217 57.9139 29.1217C57.9157 22.4051 57.9102 15.6894 57.9166 8.97283C60.3356 8.96913 62.7556 8.96913 65.1764 8.97375C65.1866 11.3502 65.1663 13.7285 65.1866 16.1059C65.4763 14.343 65.8326 12.5634 66.609 10.9421C67.0273 10.1287 67.5668 9.34021 68.3645 8.85808Z" fill="#0A1FDA"/>
<path d="M13.4277 8.97796C15.8485 8.96223 18.2685 8.97611 20.6893 8.97149C20.6893 15.6881 20.6893 22.4056 20.6893 29.1222C18.2675 29.1222 15.8457 29.1232 13.424 29.1213C13.4277 22.4075 13.4202 15.6927 13.4277 8.97796Z" fill="#0A1FDA"/>
<path d="M71.3489 8.9671C73.7642 8.97728 76.1786 8.96525 78.5939 8.97265C78.6004 12.9436 78.5939 16.9145 78.5976 20.8845C78.6226 21.7979 78.667 22.7298 78.9807 23.5978C79.1066 23.9791 79.3768 24.3696 79.8071 24.4186C80.2522 24.2613 80.4604 23.7968 80.5992 23.3812C81.074 21.7609 80.9685 20.0563 80.9796 18.3896C80.975 15.2488 80.9879 12.1079 80.9731 8.9671C83.3968 8.97543 85.8204 8.96895 88.244 8.9708C88.244 15.6874 88.244 22.4049 88.244 29.1215C85.8222 29.1215 83.4005 29.1215 80.9796 29.1215C80.9824 27.6335 80.9731 26.1445 80.9842 24.6565C80.5937 25.9724 80.0912 27.3152 79.1001 28.3035C77.8462 29.712 75.6187 30.1599 73.9465 29.2594C73.0489 28.7736 72.4797 27.8732 72.0911 26.9589C71.3655 25.0553 71.3276 22.9861 71.3554 20.9752C71.3507 16.9719 71.3637 12.9695 71.3489 8.9671Z" fill="#0A1FDA"/>
</svg>
